arm26Opt
version=1
nRows=16
nColumns=21
inDegrees=no
endheader
time	r_shoulder_elev	r_elbow_flex	r_shoulder_elev_u	r_elbow_flex_u	TRIlong.activation	TRIlong.fiber_length	TRIlat.activation	TRIlat.fiber_length	TRImed.activation	TRImed.fiber_length	BIClong.activation	BIClong.fiber_length	BICshort.activation	BICshort.fiber_length	BRA.activation	BRA.fiber_length	DeltAnt.activation	DeltAnt.fiber_length	DeltPost.activation	DeltPost.fiber_length
        0.030000	        0.000000	        0.349066	        0.000000	       -0.000000	        0.050000	        0.143866	        0.050000	        0.077857	        0.050000	        0.072913	        0.089406	        0.139476	        0.107182	        0.141347	        0.051989	        0.086378	        0.050000	        0.161968	        0.107682	        0.108367
        0.030049	       -0.000000	        0.349066	       -0.000038	        0.000085	        0.050000	        0.143866	        0.050000	        0.077857	        0.050000	        0.072913	        0.089378	        0.139477	        0.107146	        0.141347	        0.051995	        0.086378	        0.050000	        0.161968	        0.109332	        0.108367
        0.030080	       -0.000000	        0.349066	       -0.000063	        0.000140	        0.050000	        0.143866	        0.050000	        0.077857	        0.050000	        0.072913	        0.089360	        0.139477	        0.107123	        0.141347	        0.051998	        0.086378	        0.050000	        0.161968	        0.110356	        0.108367
        0.030111	       -0.000000	        0.349066	       -0.000090	        0.000197	        0.050001	        0.143866	        0.050000	        0.077857	        0.050000	        0.072913	        0.089342	        0.139477	        0.107101	        0.141347	        0.052002	        0.086378	        0.050000	        0.161968	        0.111372	        0.108367
        0.030134	       -0.000000	        0.349066	       -0.000111	        0.000243	        0.050001	        0.143866	        0.050000	        0.077857	        0.050000	        0.072913	        0.089328	        0.139477	        0.107084	        0.141347	        0.052004	        0.086378	        0.050000	        0.161968	        0.112135	        0.108367
        0.030158	       -0.000000	        0.349066	       -0.000133	        0.000291	        0.050001	        0.143866	        0.050000	        0.077857	        0.050000	        0.072913	        0.089315	        0.139477	        0.107067	        0.141347	        0.052007	        0.086378	        0.050000	        0.161968	        0.112894	        0.108367
        0.030181	       -0.000000	        0.349066	       -0.000156	        0.000342	        0.050001	        0.143866	        0.050001	        0.077857	        0.050000	        0.072913	        0.089301	        0.139477	        0.107050	        0.141347	        0.052009	        0.086378	        0.050000	        0.161968	        0.113649	        0.108367
        0.030221	       -0.000000	        0.349066	       -0.000201	        0.000438	        0.050002	        0.143866	        0.050001	        0.077857	        0.050001	        0.072913	        0.089278	        0.139477	        0.107021	        0.141347	        0.052014	        0.086377	        0.050000	        0.161968	        0.114939	        0.108367
        0.030261	       -0.000000	        0.349066	       -0.000250	        0.000544	        0.050002	        0.143866	        0.050001	        0.077857	        0.050001	        0.072913	        0.089254	        0.139477	        0.106992	        0.141348	        0.052018	        0.086377	        0.050000	        0.161968	        0.116219	        0.108366
        0.030301	       -0.000000	        0.349066	       -0.000307	        0.000664	        0.050003	        0.143866	        0.050001	        0.077857	        0.050001	        0.072913	        0.089231	        0.139478	        0.106962	        0.141348	        0.052023	        0.086377	        0.050000	        0.161968	        0.117488	        0.108366
        0.030341	       -0.000000	        0.349066	       -0.000371	        0.000799	        0.050004	        0.143866	        0.050002	        0.077857	        0.050002	        0.072913	        0.089208	        0.139478	        0.106933	        0.141348	        0.052027	        0.086377	        0.050000	        0.161968	        0.118746	        0.108366
        0.030422	       -0.000000	        0.349066	       -0.000528	        0.001129	        0.050006	        0.143866	        0.050003	        0.077857	        0.050002	        0.072913	        0.089161	        0.139478	        0.106875	        0.141348	        0.052036	        0.086377	        0.050000	        0.161968	        0.121254	        0.108365
        0.030502	       -0.000000	        0.349066	       -0.000728	        0.001548	        0.050009	        0.143866	        0.050004	        0.077857	        0.050003	        0.072913	        0.089114	        0.139479	        0.106816	        0.141349	        0.052045	        0.086377	        0.050000	        0.161968	        0.123718	        0.108364
        0.030583	       -0.000000	        0.349066	       -0.000979	        0.002071	        0.050012	        0.143866	        0.050005	        0.077857	        0.050004	        0.072913	        0.089067	        0.139479	        0.106758	        0.141349	        0.052054	        0.086377	        0.050000	        0.161968	        0.126142	        0.108363
        0.030664	       -0.000000	        0.349066	       -0.001289	        0.002715	        0.050015	        0.143866	        0.050006	        0.077857	        0.050006	        0.072913	        0.089021	        0.139479	        0.106699	        0.141349	        0.052063	        0.086377	        0.050000	        0.161968	        0.128524	        0.108362
        0.030745	       -0.000000	        0.349067	       -0.001664	        0.003493	        0.050019	        0.143866	        0.050008	        0.077857	        0.050007	        0.072913	        0.088974	        0.139480	        0.106641	        0.141350	        0.052071	        0.086377	        0.050000	        0.161968	        0.130867	        0.108361
